<?xml version="1.0" encoding="utf-8"?>
<!-- Generator: Adobe Illustrator 24.0.2, SVG Export Plug-In . SVG Version: 6.00 Build 0)  -->
<svg version="1.1" id="Layer_1" xmlns="http://www.w3.org/2000/svg" xmlns:xlink="http://www.w3.org/1999/xlink" x="0px" y="0px"
	 viewBox="0 0 1000 1000" style="enable-background:new 0 0 1000 1000;" xml:space="preserve">
<style type="text/css">
	.st0{fill:#BFAE9F;}
</style>
<g id="Layer_2_1_">
	<g>
		<path class="st0" d="M500,10c66.2,0,130.3,13,190.7,38.5c58.3,24.7,110.8,60,155.8,105s80.3,97.4,105,155.8
			C977,369.7,990,433.8,990,500s-13,130.3-38.5,190.7c-24.7,58.3-60,110.8-105,155.8s-97.4,80.3-155.8,105
			C630.3,977,566.2,990,500,990s-130.3-13-190.7-38.5c-58.3-24.7-110.8-60-155.8-105s-80.3-97.4-105-155.8C23,630.3,10,566.2,10,500
			s13-130.3,38.5-190.7c24.7-58.3,60-110.8,105-155.8s97.4-80.3,155.8-105C369.7,23,433.8,10,500,10 M500,0C223.9,0,0,223.9,0,500
			s223.9,500,500,500s500-223.9,500-500S776.1,0,500,0L500,0z"/>
	</g>
</g>
<g>
	<path class="st0" d="M602.8,202.3v63.3h-13.7c-58,1.1-104.3,18.3-138.6,51.6c-34.4,33.3-54.3,80.2-59.7,140.7
		c30.9-35.5,73.1-53.2,126.6-53.2c51,0,91.8,18,122.3,54c30.5,36,45.7,82.5,45.7,139.5c0,60.5-16.5,108.8-49.4,145.1
		c-32.9,36.3-77,54.4-132.4,54.4c-56.2,0-101.7-21.6-136.6-64.7c-34.9-43.1-52.4-98.7-52.4-166.7v-28.6c0-108,23-190.6,69.1-247.7
		c46.1-57.1,114.7-86.3,205.8-87.7H602.8z M504.8,466.7c-25.5,0-49,7.7-70.5,23c-21.5,15.3-36.4,34.5-44.7,57.6v27.4
		c0,48.4,10.9,87.3,32.6,116.9c21.8,29.6,48.9,44.3,81.4,44.3c33.6,0,60-12.4,79.2-37.1c19.2-24.7,28.8-57.1,28.8-97.1
		c0-40.3-9.7-72.9-29.2-97.7C562.9,479.2,537.1,466.7,504.8,466.7z"/>
</g>
</svg>
