<?xml version="1.0" encoding="utf-8"?>
<!-- Generator: Adobe Illustrator 24.0.2, SVG Export Plug-In . SVG Version: 6.00 Build 0)  -->
<svg version="1.1" id="Layer_1" xmlns="http://www.w3.org/2000/svg" xmlns:xlink="http://www.w3.org/1999/xlink" x="0px" y="0px"
	 viewBox="0 0 1000 1000" style="enable-background:new 0 0 1000 1000;" xml:space="preserve">
<style type="text/css">
	.st0{fill:#BFAE9F;}
</style>
<g id="Layer_2_1_">
	<g>
		<path class="st0" d="M500,10c66.2,0,130.3,13,190.7,38.5c58.3,24.7,110.8,60,155.8,105s80.3,97.4,105,155.8
			C977,369.7,990,433.8,990,500s-13,130.3-38.5,190.7c-24.7,58.3-60,110.8-105,155.8s-97.4,80.3-155.8,105
			C630.3,977,566.2,990,500,990s-130.3-13-190.7-38.5c-58.3-24.7-110.8-60-155.8-105s-80.3-97.4-105-155.8C23,630.3,10,566.2,10,500
			s13-130.3,38.5-190.7c24.7-58.3,60-110.8,105-155.8s97.4-80.3,155.8-105C369.7,23,433.8,10,500,10 M500,0C223.9,0,0,223.9,0,500
			s223.9,500,500,500s500-223.9,500-500S776.1,0,500,0L500,0z"/>
	</g>
</g>
<g>
	<path class="st0" d="M336.5,495.2l29.8-292.8h300.9v69H429.6l-17.7,160.1c28.8-16.9,61.4-25.4,98-25.4c53.5,0,96,17.7,127.4,53
		c31.5,35.4,47.2,83.2,47.2,143.4c0,60.5-16.3,108.2-49,143c-32.7,34.8-78.3,52.2-136.9,52.2c-51.9,0-94.2-14.4-127-43.2
		c-32.8-28.8-51.5-68.6-56.1-119.4h70.6c4.6,33.6,16.5,59,35.9,76c19.4,17.1,44.9,25.6,76.6,25.6c34.7,0,61.9-11.8,81.7-35.5
		c19.8-23.7,29.6-56.3,29.6-98c0-39.3-10.7-70.8-32.1-94.6C556.5,484.9,528,473,492.5,473c-32.5,0-58.1,7.1-76.6,21.4l-19.8,16.1
		L336.5,495.2z"/>
</g>
</svg>
