<?xml version="1.0" encoding="utf-8"?>
<!-- Generator: Adobe Illustrator 24.0.2, SVG Export Plug-In . SVG Version: 6.00 Build 0)  -->
<svg version="1.1" id="Layer_1" xmlns="http://www.w3.org/2000/svg" xmlns:xlink="http://www.w3.org/1999/xlink" x="0px" y="0px"
	 viewBox="0 0 1000 1000" style="enable-background:new 0 0 1000 1000;" xml:space="preserve">
<style type="text/css">
	.st0{fill:#BFAE9F;}
</style>
<g id="Layer_2_1_">
	<g>
		<path class="st0" d="M500,10c66.2,0,130.3,13,190.7,38.5c58.3,24.7,110.8,60,155.8,105s80.3,97.4,105,155.8
			C977,369.7,990,433.8,990,500s-13,130.3-38.5,190.7c-24.7,58.3-60,110.8-105,155.8s-97.4,80.3-155.8,105
			C630.3,977,566.2,990,500,990s-130.3-13-190.7-38.5c-58.3-24.7-110.8-60-155.8-105s-80.3-97.4-105-155.8C23,630.3,10,566.2,10,500
			s13-130.3,38.5-190.7c24.7-58.3,60-110.8,105-155.8s97.4-80.3,155.8-105C369.7,23,433.8,10,500,10 M500,0C223.9,0,0,223.9,0,500
			s223.9,500,500,500s500-223.9,500-500S776.1,0,500,0L500,0z"/>
	</g>
</g>
<g>
	<path class="st0" d="M445.2,462.1h55.3c34.8-0.5,62.1-9.7,82-27.5c19.9-17.8,29.8-41.8,29.8-72c0-67.9-33.8-101.9-101.5-101.9
		c-31.8,0-57.2,9.1-76.2,27.3c-19,18.2-28.5,42.2-28.5,72.2h-73.6c0-45.9,16.8-84,50.3-114.4c33.6-30.4,76.2-45.6,127.9-45.6
		c54.6,0,97.5,14.5,128.5,43.4c31,28.9,46.6,69.1,46.6,120.6c0,25.2-8.2,49.6-24.5,73.2c-16.3,23.6-38.5,41.3-66.7,52.9
		c31.8,10.1,56.4,26.8,73.8,50.1c17.4,23.3,26.1,51.9,26.1,85.6c0,52-17,93.3-50.9,123.8c-34,30.5-78.1,45.8-132.5,45.8
		c-54.4,0-98.6-14.7-132.7-44.2c-34.1-29.4-51.1-68.3-51.1-116.6h74c0,30.5,9.9,54.9,29.8,73.2s46.6,27.5,80,27.5
		c35.5,0,62.7-9.3,81.6-27.9c18.8-18.6,28.3-45.2,28.3-80c0-33.7-10.3-59.6-31-77.6c-20.7-18-50.5-27.3-89.5-27.9h-55.3V462.1z"/>
</g>
</svg>
