<?xml version="1.0" encoding="utf-8"?>
<!-- Generator: Adobe Illustrator 24.0.2, SVG Export Plug-In . SVG Version: 6.00 Build 0)  -->
<svg version="1.1" id="Layer_1" xmlns="http://www.w3.org/2000/svg" xmlns:xlink="http://www.w3.org/1999/xlink" x="0px" y="0px"
	 viewBox="0 0 1000 1000" style="enable-background:new 0 0 1000 1000;" xml:space="preserve">
<style type="text/css">
	.st0{fill:#BFAE9F;}
</style>
<g id="Layer_2_1_">
	<g>
		<path class="st0" d="M500,10c66.2,0,130.3,13,190.7,38.5c58.3,24.7,110.8,60,155.8,105s80.3,97.4,105,155.8
			C977,369.7,990,433.8,990,500s-13,130.3-38.5,190.7c-24.7,58.3-60,110.8-105,155.8s-97.4,80.3-155.8,105
			C630.3,977,566.2,990,500,990s-130.3-13-190.7-38.5c-58.3-24.7-110.8-60-155.8-105s-80.3-97.4-105-155.8C23,630.3,10,566.2,10,500
			s13-130.3,38.5-190.7c24.7-58.3,60-110.8,105-155.8s97.4-80.3,155.8-105C369.7,23,433.8,10,500,10 M500,0C223.9,0,0,223.9,0,500
			s223.9,500,500,500s500-223.9,500-500S776.1,0,500,0L500,0z"/>
	</g>
</g>
<g>
	<path class="st0" d="M683.4,542.7c0,86.5-14.8,150.7-44.3,192.7c-29.5,42-75.7,63-138.5,63c-62,0-107.9-20.6-137.7-61.7
		c-29.8-41.1-45.2-102.5-46.3-184.2v-98.6c0-85.4,14.8-148.8,44.3-190.3c29.5-41.5,75.8-62.3,138.9-62.3c62.5,0,108.5,20,138.1,60.1
		c29.5,40,44.7,101.8,45.5,185.4V542.7z M609.5,441.7c0-62.5-8.8-108.1-26.3-136.7c-17.6-28.6-45.4-42.9-83.4-42.9
		c-37.8,0-65.3,14.2-82.6,42.7c-17.3,28.5-26.2,72.2-26.7,131.3v118.1c0,62.8,9.1,109.1,27.3,139.1c18.2,29.9,45.8,44.9,82.8,44.9
		c36.4,0,63.5-14.1,81.2-42.3c17.7-28.2,26.9-72.6,27.7-133.3V441.7z"/>
</g>
</svg>
