<?xml version="1.0" encoding="utf-8"?>
<!-- Generator: Adobe Illustrator 24.0.2, SVG Export Plug-In . SVG Version: 6.00 Build 0)  -->
<svg version="1.1" id="Layer_1" xmlns="http://www.w3.org/2000/svg" xmlns:xlink="http://www.w3.org/1999/xlink" x="0px" y="0px"
	 viewBox="0 0 1000 1000" style="enable-background:new 0 0 1000 1000;" xml:space="preserve">
<style type="text/css">
	.st0{fill:#BFAE9F;}
</style>
<g id="Layer_1_1_">
	<g>
		<path class="st0" d="M500,147.4c47.6,0,93.8,9.3,137.2,27.7c42,17.8,79.7,43.2,112.1,75.6c32.4,32.4,57.8,70.1,75.6,112.1
			c18.4,43.5,27.7,89.6,27.7,137.2s-9.3,93.8-27.7,137.2c-17.8,42-43.2,79.7-75.6,112.1c-32.4,32.4-70.1,57.8-112.1,75.6
			c-43.5,18.4-89.6,27.7-137.2,27.7s-93.8-9.3-137.2-27.7c-42-17.8-79.7-43.2-112.1-75.6c-32.4-32.4-57.8-70.1-75.6-112.1
			c-18.4-43.5-27.7-89.6-27.7-137.2s9.3-93.8,27.7-137.2c17.8-42,43.2-79.7,75.6-112.1s70.1-57.8,112.1-75.6
			C406.2,156.9,452.4,147.4,500,147.4 M500,137.4c-200.2,0-362.5,162.3-362.5,362.5S299.8,862.5,500,862.5S862.5,700.3,862.5,500
			S700.2,137.4,500,137.4L500,137.4z"/>
	</g>
</g>
<g id="Layer_2_1_">
	<g>
		<path class="st0" d="M500,10c66.2,0,130.3,13,190.7,38.5c58.3,24.7,110.8,60,155.8,105s80.3,97.4,105,155.8
			C977,369.7,990,433.8,990,500s-13,130.3-38.5,190.7c-24.7,58.3-60,110.8-105,155.8s-97.4,80.3-155.8,105
			C630.3,977,566.2,990,500,990s-130.3-13-190.7-38.5c-58.3-24.7-110.8-60-155.8-105s-80.3-97.4-105-155.8C23,630.3,10,566.2,10,500
			s13-130.3,38.5-190.7c24.7-58.3,60-110.8,105-155.8s97.4-80.3,155.8-105C369.7,23,433.8,10,500,10 M500,0C223.9,0,0,223.9,0,500
			s223.9,500,500,500s500-223.9,500-500S776.1,0,500,0L500,0z"/>
	</g>
</g>
<g>
	<path class="st0" d="M588.1,613c0-19.2-6.7-35.4-20.2-48.6c-13.5-13.2-36.2-25.1-68.2-35.7c-44.5-13.6-76.9-31.3-97.3-53.1
		c-20.4-21.8-30.6-49.6-30.6-83.2c0-34.3,10-62.4,29.9-84.3c19.9-21.9,47.4-35,82.3-39.2v-68.6h46.7v68.9
		c35.1,4.8,62.4,19.5,82,44.2c19.5,24.7,29.3,58.4,29.3,101.2h-57.7c0-29.6-7-53-21-70.4c-14-17.4-32.9-26.1-56.7-26.1
		c-24.9,0-43.9,6.4-57,19.3c-13.2,12.9-19.7,30.8-19.7,53.8c0,21.4,6.9,38.4,20.8,51c13.9,12.7,36.8,24.2,68.6,34.5
		c31.9,10.4,56.7,21.8,74.6,34.2c17.9,12.4,31,26.9,39.5,43.4c8.5,16.5,12.7,35.8,12.7,58c0,35.3-10.6,63.7-31.8,85.2
		c-21.2,21.5-50.9,34.3-89.2,38.2v59.9h-46.4v-59.9c-38.9-3.6-69.3-17.4-91.4-41.5c-22-24.1-33.1-56.9-33.1-98.2h58
		c0,29,7.6,51.4,22.9,67.1c15.2,15.7,36.9,23.5,64.9,23.5c27.4,0,48.9-6.6,64.6-19.7C580.2,653.8,588.1,635.8,588.1,613z"/>
</g>
</svg>
