<?xml version="1.0" encoding="utf-8"?>
<!-- Generator: Adobe Illustrator 24.0.2, SVG Export Plug-In . SVG Version: 6.00 Build 0)  -->
<svg version="1.1" xmlns="http://www.w3.org/2000/svg" xmlns:xlink="http://www.w3.org/1999/xlink" x="0px" y="0px"
	 viewBox="0 0 1000 1000" style="enable-background:new 0 0 1000 1000;" xml:space="preserve">
<g id="Layer_1">
	<rect x="182.7" y="754.2" width="634.7" height="63.5"/>
	<rect x="182.7" y="182.3" width="634.7" height="63.5"/>
	<rect x="-102.9" y="467.9" transform="matrix(6.123234e-17 -1 1 6.123234e-17 -285.2724 714.0742)" width="634.7" height="63.5"/>
	<rect x="468.3" y="467.9" transform="matrix(6.123234e-17 -1 1 6.123234e-17 285.9258 1285.2725)" width="634.7" height="63.5"/>
	<circle cx="500.3" cy="500.3" r="32.2"/>
	<circle cx="375.3" cy="625.2" r="32.2"/>
	<circle cx="625.2" cy="375.3" r="32.2"/>
</g>
<g id="Layer_2">
	<g>
		<path d="M500,10c66.2,0,130.3,13,190.7,38.5c58.3,24.7,110.8,60,155.8,105c45,45,80.3,97.4,105,155.8C977,369.7,990,433.8,990,500
			s-13,130.3-38.5,190.7c-24.7,58.3-60,110.8-105,155.8c-45,45-97.4,80.3-155.8,105C630.3,977,566.2,990,500,990
			s-130.3-13-190.7-38.5c-58.3-24.7-110.8-60-155.8-105c-45-45-80.3-97.4-105-155.8C23,630.3,10,566.2,10,500s13-130.3,38.5-190.7
			c24.7-58.3,60-110.8,105-155.8s97.4-80.3,155.8-105C369.7,23,433.8,10,500,10 M500,0C223.9,0,0,223.9,0,500s223.9,500,500,500
			s500-223.9,500-500S776.1,0,500,0L500,0z"/>
	</g>
</g>
</svg>
