<?xml version="1.0" encoding="utf-8"?>
<!-- Generator: Adobe Illustrator 24.0.2, SVG Export Plug-In . SVG Version: 6.00 Build 0)  -->
<svg version="1.1" xmlns="http://www.w3.org/2000/svg" xmlns:xlink="http://www.w3.org/1999/xlink" x="0px" y="0px"
	 viewBox="0 0 1000 1000" style="enable-background:new 0 0 1000 1000;" xml:space="preserve">
<g id="Layer_1">
	<rect x="148.3" y="430.3" width="705.1" height="141"/>
	<circle cx="500" cy="701.6" r="70.5"/>
	<circle cx="500" cy="300" r="70.5"/>
</g>
<g id="Layer_2">
	<g>
		<path d="M500,10c66.2,0,130.3,13,190.7,38.5c58.3,24.7,110.8,60,155.8,105c45,45,80.3,97.4,105,155.8C977,369.7,990,433.8,990,500
			s-13,130.3-38.5,190.7c-24.7,58.3-60,110.8-105,155.8c-45,45-97.4,80.3-155.8,105C630.3,977,566.2,990,500,990
			s-130.3-13-190.7-38.5c-58.3-24.7-110.8-60-155.8-105c-45-45-80.3-97.4-105-155.8C23,630.3,10,566.2,10,500s13-130.3,38.5-190.7
			c24.7-58.3,60-110.8,105-155.8s97.4-80.3,155.8-105C369.7,23,433.8,10,500,10 M500,0C223.9,0,0,223.9,0,500s223.9,500,500,500
			s500-223.9,500-500S776.1,0,500,0L500,0z"/>
	</g>
</g>
</svg>
